<svg id="imgLogoFlat" xmlns="http://www.w3.org/2000/svg" viewBox="0 0 16 16" enable-background="new 0 0 16 16"><style type="text/css">.st0{fill:#FFAD0F;} .st1{fill:#EEEEEE;} .st2{fill:#8B572A;} .st3{fill:#A27731;} .st4{fill:#735122;} .st5{fill:#FFFFFF;} .st6{fill:#FBD961;} .st7{fill:#FFC350;} .st8{fill:#F05F40;}</style><path class="st0" d="M7.105 7.245c2.389 0 4.325 1.443 4.325 3.223s-1.936 3.222-4.325 3.222-4.325-1.443-4.325-3.222 1.936-3.223 4.325-3.223z"/><path class="st1" d="M1.487 10.168c0 3.207 2.638 5.807 5.892 5.807s5.892-2.6 5.892-5.807c0-.836-.179-1.631-.502-2.349l-.663 1.471-.741-.306-.658.681-1.887-.82-.495 1.513-1.579-1.185-1.199.857-.671-1.185-.671.786-.765-.274-.67.349-.824-1.412c-.271.551-.459 1.176-.459 1.874z"/><path class="st2" d="M5.388 12.636l.391.334-.145.17-.409-.35-.734.383-.104-.199.78-.406.628-1.021-.668-.617.388-.979.209.082-.331.836.69.638-.695 1.129z"/><path class="st3" d="M3.164 2.865c.679-.071 1.321.731 1.433 1.793.112 1.061-.348 1.979-1.028 2.051-.68.071-1.321-.732-1.433-1.793-.112-1.062.348-1.98 1.028-2.051z"/><path class="st4" d="M3.03 2.954c.525-.055 1.021.565 1.107 1.385.086.82-.269 1.529-.794 1.585-.525.055-1.021-.565-1.107-1.385-.086-.82.269-1.53.794-1.585z"/><path class="st5" d="M2.638 3.417c.144-.042.295.04.336.183s-.043.292-.188.333c-.145.041-.295-.041-.336-.183s.043-.292.188-.333z"/><path class="st6" d="M3.001 6.805c.658 0 1.192 1.112 1.192 2.484s-.534 2.484-1.192 2.484-1.192-1.112-1.192-2.483.534-2.485 1.192-2.485zm6.83 1.945c-.745.764-2.839 2.884-1.587 3.96l3.285-1.257s.429-.421.622-1.142c.117-.436.085-1.134 0-1.479-.637-1.478-1.856-.558-2.32-.082zm1.582-6.999s1.114-.494 1.941-1.372l.149.547s.994-.359.994-.858.302 3.45-1.758 3.249l-1.326-1.566z"/><path class="st7" d="M3.383 8.561c.744.71-.038-.365 1.629-.365 1.032 0 3.438.459 4.915.365.845-.054 1.665-.382 2.057-.662.892-.638 1.093-1.321 1.133-2.293.003-.081.084-1.063-.291-2.059-.232-.615-.641-1.172-1.238-1.713-1.161-1.052-2.976-1.54-4.434-1.54-3.294 0-4.771 2.902-4.771 5.312-.001 1.189.275 2.262 1 2.955z"/><path class="st3" d="M8.676 3.526c.673.118 1.068 1.066.882 2.117-.185 1.051-.881 1.807-1.554 1.689-.673-.119-1.068-1.066-.882-2.117s.882-1.807 1.554-1.689z"/><path class="st4" d="M8.683 3.612c.52.091.825.824.682 1.636-.144.812-.682 1.396-1.202 1.305-.52-.091-.825-.824-.682-1.636s.682-1.396 1.202-1.305z"/><path class="st5" d="M8.28 3.986c.15 0 .272.12.272.269 0 .148-.122.269-.272.269-.15 0-.272-.12-.272-.269 0-.149.122-.269.272-.269z"/><path class="st8" d="M7.606 8.446c-1.025-.11-2.021-.25-2.594-.25-1.667 0-.886 1.075-1.629.365-.725-.693-1.001-1.766-1.001-2.956l.023-.51c.162-.016.318-.049.484-.049 2.201 0 4.049 1.429 4.717 3.4z"/></svg>